<?xml version="1.0" standalone="no"?>
<!DOCTYPE svg PUBLIC "-//W3C//DTD SVG 20010904//EN"
 "http://www.w3.org/TR/2001/REC-SVG-20010904/DTD/svg10.dtd">
<svg version="1.0" xmlns="http://www.w3.org/2000/svg"
 width="1024.000000pt" height="1024.000000pt" viewBox="0 0 1024.000000 1024.000000"
 preserveAspectRatio="xMidYMid meet">
<metadata>
Created by potrace 1.16, written by Peter Selinger 2001-2019
</metadata>
<g transform="translate(0.000000,1024.000000) scale(0.100000,-0.100000)"
fill="#000000" stroke="none">
<path d="M0 5120 l0 -5120 5120 0 5120 0 0 5120 0 5120 -5120 0 -5120 0 0
-5120z m1932 3404 c36 -19 111 -91 157 -151 40 -53 128 -238 175 -368 166
-465 278 -1158 328 -2025 18 -324 16 -1086 -5 -1430 -10 -157 -20 -296 -22
-310 -3 -14 -9 -86 -15 -160 -24 -299 -81 -672 -156 -1015 -121 -550 -303
-919 -483 -982 -161 -56 -320 99 -459 447 -42 106 -127 389 -146 490 -10 47
-21 99 -26 115 -23 75 -82 427 -105 630 -8 66 -19 156 -25 200 -32 242 -78
1147 -65 1290 8 97 15 125 27 122 6 -1 16 13 21 31 8 26 7 36 -7 50 -14 16
-16 46 -16 207 0 187 7 221 29 130 9 -39 9 -39 10 23 1 36 -5 72 -12 85 -11
18 -11 32 -2 72 l11 50 7 -40 c4 -22 10 -88 14 -146 5 -87 3 -112 -11 -139 -9
-18 -16 -43 -16 -54 0 -36 21 -97 31 -91 5 4 9 -7 9 -24 0 -16 4 -33 10 -36 9
-6 6 -80 -6 -117 -4 -13 2 -21 23 -30 44 -17 56 -18 79 -3 30 19 394 11 455
-10 23 -8 52 -15 65 -15 l24 0 2 1543 c1 1726 1 1647 11 1665 11 17 52 15 89
-4z m2027 -18 c136 -88 199 -199 301 -531 72 -235 156 -753 179 -1110 51 -771
31 -1448 -60 -2045 -48 -312 -94 -508 -172 -730 -77 -219 -137 -310 -248 -373
-44 -26 -52 -27 -196 -27 -109 0 -153 3 -160 13 -6 7 -13 178 -17 422 -3 226
-9 424 -14 440 -10 40 -3 187 8 160 5 -11 8 46 8 135 0 92 -3 145 -8 130 -5
-14 -8 55 -8 165 0 117 3 182 8 170 11 -24 2 398 -9 435 -10 34 -1 192 10 165
4 -11 8 46 8 130 0 92 -4 142 -9 130 -5 -12 -9 55 -9 170 0 117 4 182 9 170
10 -23 2 383 -9 430 -9 42 -1 186 9 160 5 -12 9 34 9 112 1 86 -3 133 -10 135
-14 5 -13 372 1 376 6 2 10 80 10 205 0 134 -4 197 -10 187 -7 -10 -10 28 -10
118 0 86 4 131 10 127 6 -4 10 13 10 43 l0 49 -92 5 c-51 3 -172 4 -268 3
-173 -3 -175 -3 -180 -26 l-6 -23 -21 21 c-14 14 -23 18 -26 10 -3 -8 -10 -5
-21 8 -29 37 -20 45 52 46 438 6 577 10 586 19 6 6 70 10 151 10 l141 0 53
-34z m2580 20 c16 -20 658 -19 665 1 4 10 50 13 216 13 l212 0 -5 -1137 c-4
-1139 -11 -1377 -46 -1668 -6 -44 -15 -127 -21 -185 -59 -561 -165 -1048 -312
-1443 -8 -20 -27 -50 -41 -65 -15 -16 -27 -35 -27 -43 0 -7 -10 -30 -22 -49
-12 -19 -32 -53 -44 -75 -28 -51 -50 -56 -59 -15 -5 22 -2 39 11 58 16 24 18
25 24 7 6 -17 7 -17 13 -1 11 27 8 47 -5 45 -29 -3 -40 2 -34 16 3 8 1 15 -4
15 -6 0 -10 -21 -11 -47 0 -42 -2 -45 -11 -26 -15 32 8 113 32 113 13 0 19 12
23 52 4 29 3 55 -2 58 -12 7 -31 46 -31 63 0 9 9 12 30 9 30 -4 40 -27 21 -47
-11 -12 -3 -65 10 -65 5 0 9 21 9 48 0 64 13 83 31 47 8 -15 19 -28 24 -29 14
-1 19 63 5 79 -12 14 -15 3892 -4 4108 7 110 6 117 -12 117 -174 3 -532 -1
-572 -6 l-52 -7 2 -2231 3 -2231 -23 34 c-44 64 -125 293 -181 511 -120 466
-205 1128 -231 1790 -11 275 -14 2183 -3 2193 3 4 97 7 208 7 159 0 205 -3
214 -14z m-1214 -301 c14 -121 32 -281 41 -355 8 -74 19 -166 25 -205 5 -38
20 -169 34 -290 40 -342 73 -628 90 -765 8 -69 24 -201 35 -295 10 -93 30
-264 44 -380 14 -115 46 -383 71 -595 24 -212 54 -459 65 -550 11 -91 25 -208
30 -260 6 -52 19 -169 30 -260 27 -218 46 -376 65 -540 8 -74 25 -211 36 -305
11 -93 26 -226 34 -295 8 -69 21 -183 30 -255 9 -71 20 -166 25 -210 5 -44 20
-177 34 -295 14 -118 26 -234 26 -257 l0 -43 -750 0 -750 0 0 43 c0 23 7 98
16 167 8 69 21 184 29 255 19 178 51 448 75 640 25 205 65 541 85 720 9 77 22
194 30 260 15 123 26 210 50 420 7 66 18 158 24 205 10 80 83 706 116 995 8
72 22 182 30 245 8 63 22 176 30 250 9 74 24 207 35 295 11 88 33 279 50 425
17 146 37 319 45 385 8 66 24 199 35 295 11 96 27 229 35 295 8 66 24 199 35
295 11 96 23 186 27 200 8 30 4 52 38 -235z m-2225 188 c0 -23 -36 -83 -50
-83 -5 0 -10 21 -10 48 0 29 3 42 9 34 7 -11 9 -11 14 2 9 22 37 20 37 -1z
m3798 -29 c4 -6 15 -13 25 -17 23 -8 22 -24 -2 -32 -20 -6 -24 -14 -36 -74 -6
-29 -9 -32 -17 -17 -8 13 -13 15 -24 5 -11 -9 -14 -7 -14 12 0 16 8 28 23 34
27 12 29 38 2 44 -11 2 -23 8 -27 15 -6 8 -10 8 -15 0 -5 -6 -18 -14 -30 -18
-18 -6 -23 -3 -23 9 0 9 -9 19 -20 22 -27 7 -25 20 6 30 32 11 143 1 152 -13z
m239 -76 c-2 -13 -4 -3 -4 22 0 25 2 35 4 23 2 -13 2 -33 0 -45z m-348 -22 c9
-11 10 -20 1 -35 -16 -32 -30 -25 -30 14 0 37 10 44 29 21z m-5196 -73 c5 -56
3 -70 -11 -80 -11 -9 -18 -10 -23 -2 -12 20 -19 -8 -22 -85 -2 -78 -13 -99
-23 -46 -4 17 -13 30 -21 30 -21 0 -11 51 26 132 15 35 33 75 39 91 18 44 29
32 35 -40z m1457 -28 c0 -19 -4 -35 -10 -35 -5 0 -10 16 -10 35 0 19 5 35 10
35 6 0 10 -16 10 -35z m386 -28 c-3 -34 -15 -86 -26 -115 -11 -29 -20 -70 -20
-93 0 -22 -5 -50 -11 -61 -9 -17 -8 -24 2 -32 8 -6 16 -35 17 -63 4 -48 2 -53
-17 -53 -12 0 -21 -6 -21 -15 0 -34 -19 -12 -26 30 -6 43 -4 60 12 125 4 19 3
21 -4 11 -7 -10 -11 37 -11 152 l-1 167 33 0 c18 0 38 -5 45 -12 9 -9 13 -7
18 5 12 34 17 16 10 -46z m3691 11 c-2 -13 -4 -5 -4 17 -1 22 1 32 4 23 2 -10
2 -28 0 -40z m-4150 5 c-3 -10 -5 -4 -5 12 0 17 2 24 5 18 2 -7 2 -21 0 -30z
m3605 -1565 c-2 -1589 5 -2209 27 -2216 14 -5 15 -119 0 -128 -7 -4 -8 -20 -4
-41 3 -19 3 -48 0 -65 -10 -45 -25 -15 -24 47 0 28 -4 69 -10 92 -8 30 -10
600 -8 1955 2 1633 5 1938 20 1938 1 0 1 -712 -1 -1582z m337 1387 c0 -161
-11 -226 -22 -141 -9 64 -9 289 0 312 14 37 22 -21 22 -171z m-3912 8 c-2 -27
-3 -5 -3 47 0 52 1 74 3 48 2 -27 2 -69 0 -95z m4131 -75 c-1 -133 -4 -185 -7
-138 -4 43 -9 66 -12 55 -4 -11 -7 19 -8 68 -1 52 3 87 9 87 6 0 10 30 10 70
0 39 2 70 5 70 3 0 4 -96 3 -212z m-5518 108 c0 -19 5 -38 10 -41 6 -3 10 -20
10 -37 0 -17 -3 -28 -7 -24 -5 4 -8 11 -8 14 0 4 -3 12 -6 17 -13 21 -20 105
-10 105 6 0 11 -15 11 -34z m1927 -178 c-3 -7 -5 -2 -5 12 0 14 2 19 5 13 2
-7 2 -19 0 -25z m-2117 8 c0 -3 -4 -8 -10 -11 -5 -3 -10 -1 -10 4 0 6 5 11 10
11 6 0 10 -2 10 -4z m187 -48 c-3 -8 -6 -5 -6 6 -1 11 2 17 5 13 3 -3 4 -12 1
-19z m1392 -46 c1 -20 -3 -31 -9 -27 -5 3 -10 27 -9 53 0 35 3 42 9 27 5 -11
9 -35 9 -53z m3868 46 c-3 -8 -6 -5 -6 6 -1 11 2 17 5 13 3 -3 4 -12 1 -19z
m-5547 -364 c0 -14 -4 -22 -10 -19 -5 3 -10 17 -10 31 0 14 4 22 10 19 6 -3
10 -17 10 -31z m-41 -215 c-21 -52 -32 -9 -12 51 4 12 6 12 15 -3 7 -13 6 -27
-3 -48z m1708 -432 c-1 -73 -3 -10 -3 138 0 149 2 208 3 132 2 -76 2 -198 0
-270z m4170 -139 c-1 -68 -3 -15 -3 117 0 132 2 187 3 123 2 -64 2 -172 0
-240z m832 67 c1 -16 8 -43 16 -59 8 -15 15 -43 15 -60 0 -19 8 -38 19 -48 22
-18 46 -92 36 -108 -10 -17 -25 -1 -25 28 0 18 -3 23 -10 16 -7 -7 -6 -29 3
-70 8 -33 11 -68 6 -79 -5 -14 -8 -6 -8 28 -1 41 -3 46 -15 35 -7 -8 -17 -24
-20 -36 -4 -12 -12 -19 -18 -16 -7 4 -6 9 1 13 6 4 14 43 17 87 5 61 1 99 -16
169 -31 133 -33 143 -25 162 7 16 9 15 15 -7 5 -14 8 -38 9 -55z m-6818 -97
l-9 -33 -1 36 c-1 20 2 52 7 70 l7 34 3 -37 c2 -20 -1 -51 -7 -70z m6829 -118
c0 -11 -4 -20 -10 -20 -5 0 -10 9 -10 20 0 11 5 20 10 20 6 0 10 -9 10 -20z
m134 -227 c5 -41 2 -64 -8 -52 -8 10 -15 99 -7 99 4 0 11 -21 15 -47z m-6997
-155 c-3 -7 -5 -2 -5 12 0 14 2 19 5 13 2 -7 2 -19 0 -25z m6020 -135 c-2 -32
-3 -8 -3 52 0 61 1 87 3 58 2 -29 2 -78 0 -110z m940 95 c-3 -7 -5 -2 -5 12 0
14 2 19 5 13 2 -7 2 -19 0 -25z m120 -103 c19 -33 34 -115 22 -115 -5 0 -13
18 -19 40 -6 22 -15 38 -20 35 -6 -4 -10 10 -10 32 -1 21 -5 57 -9 80 -5 23
-5 45 -2 49 3 3 9 -16 14 -43 4 -26 15 -61 24 -78z m-101 -29 c-9 -122 -26
-120 -26 3 0 95 1 102 16 90 14 -11 16 -27 10 -93z m-46 -58 c0 -83 -3 -118
-10 -108 -16 25 -11 230 6 230 2 0 4 -55 4 -122z m70 -58 c0 -21 -4 -42 -10
-45 -6 -4 -10 13 -10 45 0 32 4 49 10 45 6 -3 10 -24 10 -45z m134 -31 c4 -23
4 -44 2 -47 -7 -6 -26 44 -26 69 0 35 17 19 24 -22z m70 -220 c14 -56 16 -73
6 -79 -9 -5 -11 -22 -8 -48 3 -22 2 -45 -2 -52 -4 -7 -10 28 -14 76 -3 49 -9
108 -12 132 -10 67 10 49 30 -29z m-1187 -536 c-1 -93 -3 -17 -3 167 0 184 2
260 3 168 2 -93 2 -243 0 -335z m1232 393 c1 -11 12 -42 25 -70 44 -94 58
-130 102 -276 25 -80 56 -181 70 -225 14 -44 36 -114 49 -155 13 -41 58 -183
100 -315 42 -132 85 -267 95 -300 23 -76 93 -302 131 -420 50 -157 158 -503
229 -730 97 -312 196 -625 230 -730 16 -49 30 -108 32 -130 l3 -40 -700 -2
c-385 -1 -722 0 -748 3 l-48 6 3 917 c2 760 5 921 17 943 8 15 17 25 21 23 11
-7 25 34 51 145 12 52 26 100 30 106 5 6 28 71 52 145 24 74 54 166 67 204 15
44 24 101 26 155 4 100 20 156 38 141 16 -13 54 63 80 159 10 36 24 80 32 98
8 18 14 44 14 57 0 13 7 46 16 72 14 42 14 50 1 72 -18 32 -37 120 -36 169 0
30 2 33 9 17 5 -11 9 -29 9 -39z m-5402 -1029 c-1 -73 -3 -10 -3 138 0 149 2
208 3 132 2 -76 2 -198 0 -270z m373 84 c0 -108 3 -206 6 -217 4 -17 0 -23
-20 -28 -22 -5 -26 -12 -26 -44 l0 -37 -14 27 c-10 19 -12 38 -5 75 6 26 8
128 7 226 -3 183 -1 194 37 194 13 0 15 -31 15 -196z m3610 -206 l25 0 0 163
c0 89 3 162 8 162 4 0 7 -74 7 -165 0 -152 -2 -167 -20 -185 -11 -11 -29 -20
-40 -20 -19 0 -20 6 -18 188 l2 187 6 -165 5 -165 25 0z m157 273 c-3 -7 -5
-2 -5 12 0 14 2 19 5 13 2 -7 2 -19 0 -25z m-260 -10 c-3 -7 -5 -2 -5 12 0 14
2 19 5 13 2 -7 2 -19 0 -25z m-3430 0 c-3 -8 -6 -5 -6 6 -1 11 2 17 5 13 3 -3
4 -12 1 -19z m4683 -28 c0 -5 -2 -10 -4 -10 -3 0 -8 5 -11 10 -3 6 -1 10 4 10
6 0 11 -4 11 -10z m-1490 -306 c0 -8 -4 -12 -10 -9 -5 3 -10 13 -10 21 0 8 5
12 10 9 6 -3 10 -13 10 -21z m237 -26 c-2 -13 -4 -5 -4 17 -1 22 1 32 4 23 2
-10 2 -28 0 -40z m-3879 -143 c5 -49 6 -101 2 -115 -6 -24 -7 -24 -18 9 -7 20
-11 87 -11 165 2 142 9 126 27 -59z m402 140 c0 -24 -34 -57 -53 -50 -21 9
-22 24 -2 31 8 4 15 11 15 18 0 6 9 12 20 13 11 1 20 -4 20 -12z m3610 -321
c0 -22 4 -33 13 -31 13 2 23 -64 13 -90 -5 -12 -9 -13 -21 -3 -13 11 -20 9
-43 -11 -18 -17 -36 -24 -55 -21 -15 2 -25 7 -23 11 3 4 -1 25 -8 47 -7 21
-11 56 -8 77 4 37 5 38 16 15 8 -15 20 -22 34 -21 12 2 22 -2 22 -7 0 -5 7 -7
15 -4 8 4 15 17 15 29 0 32 10 56 21 49 5 -3 9 -21 9 -40z m-64 -1 c-11 -11
-17 4 -9 23 7 18 8 18 11 1 2 -10 1 -21 -2 -24z m-3930 -145 c6 -54 5 -58 -14
-58 -20 0 -21 5 -21 88 1 159 17 145 35 -30z m3641 105 c-3 -10 -5 -2 -5 17 0
19 2 27 5 18 2 -10 2 -26 0 -35z m58 -41 c0 -31 -19 -28 -23 4 -3 18 0 25 10
22 7 -3 13 -14 13 -26z m120 -42 c3 -5 -1 -10 -9 -10 -9 0 -16 5 -16 10 0 6 4
10 9 10 6 0 13 -4 16 -10z m-3727 -55 c-2 -20 -8 -25 -29 -25 -23 0 -26 4 -22
21 4 13 8 17 13 9 5 -8 9 -4 13 10 7 29 27 16 25 -15z m209 15 c3 -11 9 -17
14 -14 5 3 6 -2 3 -10 -5 -12 -21 -16 -66 -16 -53 0 -59 2 -48 15 7 8 20 15
30 15 10 0 23 7 30 15 17 21 31 19 37 -5z m3573 -25 c0 -9 -9 -15 -21 -15 -18
0 -19 2 -9 15 7 8 16 15 21 15 5 0 9 -7 9 -15z m-3700 -5 c0 -5 -17 -9 -37 -9
l-38 2 35 7 c19 4 36 8 38 9 1 0 2 -3 2 -9z"/>
<path d="M3582 8220 c0 -19 2 -27 5 -17 2 9 2 25 0 35 -3 9 -5 1 -5 -18z"/>
<path d="M7148 4093 c-4 -79 -2 -125 4 -129 5 -3 8 20 8 50 0 31 5 56 10 56 6
0 10 11 10 25 0 36 -30 33 -32 -2z"/>
<path d="M7107 4063 c-11 -10 -8 -63 3 -63 6 0 10 16 10 35 0 36 -2 40 -13 28z"/>
<path d="M3361 7904 c0 -11 3 -14 6 -6 3 7 2 16 -1 19 -3 4 -6 -2 -5 -13z"/>
</g>
</svg>
